<?xml version="1.0" encoding="UTF-8" standalone="no"?>
<!DOCTYPE svg PUBLIC "-//W3C//DTD SVG 1.1//EN" "http://www.w3.org/Graphics/SVG/1.1/DTD/svg11.dtd">
<svg width="100%" height="100%" viewBox="0 0 91 40" version="1.1" xmlns="http://www.w3.org/2000/svg" xmlns:xlink="http://www.w3.org/1999/xlink" xml:space="preserve" xmlns:serif="http://www.serif.com/" style="fill-rule:evenodd;clip-rule:evenodd;stroke-linejoin:round;stroke-miterlimit:2;">
    <path d="M17.12,24.845C21.134,22.917 23.906,18.814 23.906,14.063C23.906,7.462 18.554,2.11 11.953,2.11C5.352,2.11 0,7.462 0,14.063C0,20.665 5.352,26.016 11.953,26.016C12.175,26.016 12.395,26.01 12.613,25.998C13.58,26.865 14.475,27.526 15.297,27.98C16.624,28.714 18.083,29.081 19.675,29.081C20.891,29.081 22.013,28.844 23.042,28.37C24.07,27.896 24.971,27.196 25.745,26.27L23.755,23.832C22.627,25.096 21.3,25.729 19.775,25.729C19.067,25.729 18.404,25.571 17.784,25.254C17.564,25.142 17.343,25.006 17.12,24.845ZM11.953,22.338C7.383,22.338 3.678,18.634 3.678,14.063C3.678,9.493 7.383,5.788 11.953,5.788C16.523,5.788 20.228,9.493 20.228,14.063C20.228,18.634 16.523,22.338 11.953,22.338Z" style="fill:white;"/>
    <path d="M86.269,18.472C86.312,17.949 86.334,17.546 86.334,17.263C86.334,15.476 85.961,13.901 85.217,12.539C84.472,11.177 83.435,10.12 82.108,9.368C80.78,8.616 79.274,8.24 77.59,8.24C75.885,8.24 74.352,8.621 72.992,9.384C71.632,10.147 70.568,11.209 69.802,12.571C69.036,13.934 68.652,15.465 68.652,17.165C68.652,18.886 69.046,20.428 69.834,21.791C70.622,23.153 71.74,24.215 73.186,24.978C74.632,25.741 76.306,26.122 78.205,26.122C79.695,26.122 81.034,25.882 82.221,25.403C83.289,24.972 84.229,24.324 84.965,23.522C85.152,23.273 84.915,22.998 84.823,22.891L84.818,22.885C84.377,22.374 84.002,21.917 83.695,21.542C83.525,21.336 83.376,21.155 83.249,21.004C83.072,20.794 82.908,20.834 82.665,21.07C81.5,22.085 80.006,22.657 78.303,22.657C76.813,22.657 75.566,22.281 74.562,21.529C73.558,20.777 72.938,19.758 72.7,18.472L86.269,18.472ZM74.304,12.67C75.2,11.896 76.295,11.509 77.591,11.509C78.908,11.509 80.009,11.902 80.894,12.686C81.779,13.471 82.308,14.495 82.481,15.759L72.668,15.759C72.863,14.473 73.408,13.443 74.304,12.67Z" style="fill:white;"/>
    <path d="M48.265,2.11C48.015,2.11 47.812,2.313 47.812,2.563L47.812,16.528C47.812,16.561 47.814,16.594 47.817,16.626C47.814,16.693 47.812,16.758 47.812,16.822C47.812,21.9 51.928,26.016 57.006,26.016C62.084,26.016 66.201,21.9 66.201,16.822C66.201,11.743 62.029,7.872 56.554,8.331C54.554,8.498 52.849,9.308 51.49,10.403L51.49,2.563C51.49,2.313 51.287,2.11 51.036,2.11L48.265,2.11ZM57.313,22.951C60.529,22.951 63.136,20.344 63.136,17.128C63.136,13.912 60.529,11.305 57.313,11.305C54.097,11.305 51.49,13.912 51.49,17.128C51.49,20.344 54.097,22.951 57.313,22.951Z" style="fill:white;"/>
    <path d="M35.568,25.987C32.847,25.987 30.757,25.238 29.243,23.742C27.728,22.245 26.971,20.109 26.971,17.332L26.971,9.189C26.971,8.879 27.325,8.824 27.325,8.824L31.043,8.824C31.043,8.824 31.317,8.945 31.324,9.189C31.33,9.432 31.324,17.169 31.324,17.169C31.324,18.918 31.687,20.203 32.412,21.024C33.136,21.842 34.189,22.254 35.568,22.254C36.947,22.254 38.026,21.844 38.752,21.024C39.477,20.203 39.84,18.918 39.84,17.169C39.84,17.169 39.833,9.432 39.84,9.189C39.846,8.945 40.121,8.824 40.121,8.824L43.838,8.824C43.838,8.824 44.193,8.879 44.193,9.189L44.193,17.332C44.193,20.109 43.435,22.245 41.921,23.742C40.407,25.238 38.289,25.987 35.568,25.987Z" style="fill:white;fill-rule:nonzero;"/>
    <path d="M46.113,37.23C47.731,37.23 48.802,36.65 49.561,35.735L48.345,34.697C47.887,35.333 47.162,35.746 46.158,35.746C44.607,35.746 43.647,34.731 43.647,33.124C43.647,31.506 44.607,30.557 46.158,30.557C47.162,30.557 47.887,30.97 48.345,31.606L49.561,30.568C48.802,29.642 47.675,29.051 46.113,29.051C43.569,29.051 42.007,30.591 42.007,33.124C42.007,35.657 43.569,37.23 46.113,37.23Z" style="fill:white;fill-rule:nonzero;"/>
    <path d="M53.466,37.208C55.508,37.208 56.803,35.969 56.803,34.039C56.803,32.119 55.508,30.881 53.466,30.881C51.424,30.881 50.13,32.119 50.13,34.039C50.13,35.969 51.424,37.208 53.466,37.208ZM53.466,35.835C52.395,35.835 51.681,35.121 51.681,34.039C51.681,32.967 52.395,32.253 53.466,32.253C54.538,32.253 55.252,32.967 55.252,34.039C55.252,35.121 54.538,35.835 53.466,35.835Z" style="fill:white;fill-rule:nonzero;"/>
    <path d="M57.941,31.015L57.941,37.074L59.47,37.074L59.47,32.733C59.838,32.465 60.351,32.253 60.965,32.253C61.791,32.253 62.148,32.61 62.148,33.682L62.148,37.074L63.665,37.074L63.665,33.447C63.665,31.562 63.107,30.881 61.523,30.881C60.82,30.881 59.983,31.126 59.414,31.461L59.414,31.015L57.941,31.015Z" style="fill:white;fill-rule:nonzero;"/>
    <path d="M70.829,31.015L69.155,31.015L67.537,34.775L65.93,31.015L64.223,31.015L67.113,37.13L67.883,37.13L70.829,31.015Z" style="fill:white;fill-rule:nonzero;"/>
    <path d="M77.178,34.061C77.178,32.198 76.152,30.881 74.076,30.881C72.224,30.881 70.941,32.119 70.941,34.039C70.941,35.958 72.135,37.197 74.154,37.197C75.538,37.197 76.419,36.717 76.966,35.958L76.007,35.143C75.594,35.646 74.969,35.913 74.266,35.913C73.273,35.913 72.648,35.411 72.48,34.507L77.167,34.507C77.167,34.507 77.178,34.206 77.178,34.061ZM74.076,32.142C75.114,32.142 75.594,32.744 75.683,33.403L72.492,33.403C72.681,32.532 73.306,32.142 74.076,32.142Z" style="fill:white;fill-rule:nonzero;"/>
    <path d="M78.328,31.015L78.328,37.074L79.856,37.074L79.856,34.139C79.856,33.336 80.28,32.499 81.396,32.499C81.608,32.499 81.854,32.532 82.121,32.61L82.121,30.925C81.999,30.881 81.842,30.881 81.709,30.881C80.883,30.914 80.258,31.283 79.856,31.874L79.856,31.015L78.328,31.015Z" style="fill:white;fill-rule:nonzero;"/>
    <path d="M85.179,37.219C85.826,37.219 86.328,37.107 86.574,37.007L86.574,35.779C86.261,35.869 85.882,35.902 85.647,35.902C85.011,35.902 84.844,35.612 84.844,34.943L84.844,32.276L86.585,32.276L86.585,31.015L84.844,31.015L84.844,28.66L83.338,28.66L83.338,31.015L82.467,31.015L82.467,32.276L83.338,32.276L83.338,35.199C83.338,36.583 83.851,37.219 85.179,37.219Z" style="fill:white;fill-rule:nonzero;"/>
    <g transform="matrix(-1,0,0,1,64.0918,18.9745)">
        <path d="M35.553,9.76C35.553,9.259 35.146,8.853 34.646,8.853L27.878,8.853C27.377,8.853 26.971,9.259 26.971,9.76L26.971,16.528C26.971,17.028 27.377,17.435 27.878,17.435L34.646,17.435C35.146,17.435 35.553,17.028 35.553,16.528L35.553,9.76Z" style="fill:rgb(94,233,174);"/>
    </g>
    <g transform="matrix(-1,0,0,1,66.6946,21.6153)">
        <path d="M35.553,9.76C35.553,9.259 35.146,8.853 34.646,8.853L27.878,8.853C27.377,8.853 26.971,9.259 26.971,9.76L26.971,16.528C26.971,17.028 27.377,17.435 27.878,17.435L34.646,17.435C35.146,17.435 35.553,17.028 35.553,16.528L35.553,9.76Z" style="fill:rgb(22,168,254);"/>
    </g>
</svg>
